<svg xmlns="http://www.w3.org/2000/svg" width="16.462" height="22.447" viewBox="0 0 16.462 22.447"><path d="M165.728,30.137a11.036,11.036,0,0,0-6.49,1.854,3.889,3.889,0,0,0-1.741,3.051,3.889,3.889,0,0,0,1.741,3.051,12.285,12.285,0,0,0,12.979,0,3.89,3.89,0,0,0,1.741-3.051,3.889,3.889,0,0,0-1.741-3.051A11.035,11.035,0,0,0,165.728,30.137Zm0-12.637a5.438,5.438,0,0,0-5.238,5.612,5.25,5.25,0,1,0,10.475,0A5.438,5.438,0,0,0,165.728,17.5Z" transform="translate(-157.497 -17.5)" fill="#fff" fill-rule="evenodd"/></svg>