<svg xmlns="http://www.w3.org/2000/svg" width="37.617" height="27.958" viewBox="0 0 37.617 27.958"><g transform="translate(-2364.83 -5504.384)"><path d="M117.941,94.456a1.931,1.931,0,0,0-1.821,2.23l-16.366,4.928H93.541a1.859,1.859,0,0,0-1.813,1.819H89.322a1.868,1.868,0,0,0-1.821,1.907v3.751A1.868,1.868,0,0,0,89.322,111h2.406a1.859,1.859,0,0,0,1.813,1.819h.246v5.418a3.113,3.113,0,0,0,3.035,3.178h.949a.621.621,0,0,0,.607-.636v-3.665l3.749-3.581,13.992,4.213a1.931,1.931,0,0,0,1.821,2.231,1.868,1.868,0,0,0,1.821-1.907V96.363a1.868,1.868,0,0,0-1.821-1.907ZM88.715,109.092v-3.751a.622.622,0,0,1,.607-.636h2.4v5.022h-2.4A.622.622,0,0,1,88.715,109.092Zm4.219,1.819v-7.389a.622.622,0,0,1,.607-.636h5.692v8.66H93.541a.622.622,0,0,1-.607-.636Zm3.888,9.233A1.868,1.868,0,0,1,95,118.236v-5.418h2.163v7.326Zm1.556-4.751v-2.574h1.376l1,.3Zm2.067-3.689v-8.974l15.673-4.72v18.414Zm18.1,6.367a.608.608,0,1,1-1.214,0V96.363a.608.608,0,1,1,1.214,0v21.706Z" transform="translate(2277.829 5410.428)" fill="#707070" stroke="#707070" stroke-width="1"/><path d="M570.09,261.36h-2a.636.636,0,1,0,0,1.271h2a.636.636,0,1,0,0-1.271Z" transform="translate(1831.221 5255.649)" fill="#707070" stroke="#707070" stroke-width="1"/><path d="M572.116,176.209a.635.635,0,0,0,.449-.186l1.415-1.415a.635.635,0,0,0-.9-.9l-1.415,1.415a.636.636,0,0,0,.449,1.085Z" transform="translate(1827.487 5337.104)" fill="#707070" stroke="#707070" stroke-width="1"/><path d="M572.578,329.89a.635.635,0,0,0-.9.9l1.415,1.415a.635.635,0,1,0,.9-.9Z" transform="translate(1827.475 5192.271)" fill="#707070" stroke="#707070" stroke-width="1"/></g></svg>