<svg xmlns="http://www.w3.org/2000/svg" width="2191.82" height="1379.017" viewBox="0 0 2191.82 1379.017"><g transform="translate(192.779 -761.676)"><path d="M314.027,1215.952S935.967,1063.2,1339.536,1161.4s-713.157,280.04-713.157,280.04L300.206,1299.6Z" transform="translate(-467.206 -111.38)" fill="#dedced"/><path d="M1685.482,1203.6s223.508-183.789,553.6-193.8,360.82,24.958,360.82,24.958L2558.981,1391.9l-220.973,46.729Z" transform="translate(-793.902 172.811) rotate(-9)" fill="#dedced"/><path d="M33.468,1104.352c159.635,25.231,284.682,98.283,544.747,100.923s549.241-84.589,549.241-84.589l436.9-85.705s300.369-50.118,443.153,7.888-35.579,1253.313-35.579,1253.313H-60.327V1104.352S-126.167,1079.121,33.468,1104.352Z" transform="translate(-119 -155.488)" fill="#f0eff4"/></g></svg>