<svg xmlns="http://www.w3.org/2000/svg" width="26.279" height="27.445" viewBox="0 0 26.279 27.445"><path d="M165.49,73.575a13.14,13.14,0,1,0,0,26.279h0a13.145,13.145,0,0,0,3.185-.4,11.837,11.837,0,0,0,6.706,1.564,1.081,1.081,0,0,0,.713-1.867,6.319,6.319,0,0,1-1.849-2.477.97.97,0,0,1-.033-.145,13.139,13.139,0,0,0,4.415-9.809h0a13.156,13.156,0,0,0-13.14-13.14Zm0,2.162a10.972,10.972,0,0,1,6.988,19.436h0a1.082,1.082,0,0,0-.291.376,2.491,2.491,0,0,0-.15.614,3.066,3.066,0,0,0,.14,1.134,5.482,5.482,0,0,0,.687,1.4,7.757,7.757,0,0,1-3.367-1.292,1.08,1.08,0,0,0-.934-.159,10.976,10.976,0,0,1-3.074.444h0a10.978,10.978,0,0,1,0-21.957Zm-5.511,9.9a1.319,1.319,0,1,0,.929.386,1.32,1.32,0,0,0-.929-.386Zm5.516,0a1.319,1.319,0,1,0,.929.386,1.32,1.32,0,0,0-.929-.386Zm5.516,0h0a1.32,1.32,0,1,0,.929.386,1.32,1.32,0,0,0-.929-.386Z" transform="translate(-152.35 -73.574)" fill="#797a7e" fill-rule="evenodd"/></svg>