<?xml version="1.0" encoding="UTF-8"?>
<svg width="15pt" heigh"15pt" version="1.1" viewBox="0 0 700 700" xmlns="http://www.w3.org/2000/svg" xmlns:xlink="http://www.w3.org/1999/xlink">
 <g>
  <path d="m472.5 155.17h-67.668c-4.668-26.832-26.832-46.668-54.832-46.668s-50.168 19.832-54.832 46.668h-67.668c-14 0-26.832 11.668-26.832 26.832v11.668c0 14 11.668 26.832 26.832 26.832h245c14 0 26.832-11.668 26.832-26.832v-11.668c0-15.168-12.832-26.832-26.832-26.832zm-122.5-29.168c17.5 0 32.668 12.832 37.332 29.168h-73.5c3.5-17.5 18.668-29.168 36.168-29.168z"/>
  <path d="m225.17 408.33c0 24.5 19.832 44.332 44.332 44.332h163.33c24.5 0 44.332-19.832 44.332-44.332l0.003907-177.33h-252zm175-116.66c0-4.668 3.5-9.332 9.332-9.332 4.668 0 9.332 3.5 9.332 9.332v93.332c0 4.668-3.5 9.332-9.332 9.332-4.668 0-9.332-3.5-9.332-9.332zm-58.336 0c0-4.668 3.5-9.332 9.332-9.332 4.668 0 9.332 3.5 9.332 9.332v93.332c0 4.668-3.5 9.332-9.332 9.332-4.668 0-9.332-3.5-9.332-9.332zm-58.332 0c0-4.668 3.5-9.332 9.332-9.332 4.668 0 9.332 3.5 9.332 9.332v93.332c0 4.668-3.5 9.332-9.332 9.332-4.668 0-9.332-3.5-9.332-9.332z"/>
  <use x="70" y="735" xlink:href="#g"/>
  <use x="220.503906" y="735" xlink:href="#a"/>
  <use x="287.953125" y="735" xlink:href="#f"/>
  <use x="350.015625" y="735" xlink:href="#e"/>
  <use x="450.105469" y="735" xlink:href="#d"/>
  <use x="489.953125" y="735" xlink:href="#c"/>
  <use x="551.476562" y="735" xlink:href="#a"/> 
  <use x="653.503906" y="735" xlink:href="#b"/>
 </g>
</svg>
 