<svg xmlns="http://www.w3.org/2000/svg" width="26.664" height="26.664" viewBox="0 0 26.664 26.664"><g transform="translate(-6720.699 -7863.75)"><path d="M304.183,225.124a1.021,1.021,0,0,1-1.018-1.018V222.63a1.021,1.021,0,0,1,1.018-1.018,1.985,1.985,0,1,0-1.985-1.985,1.018,1.018,0,1,1-2.036,0,4.021,4.021,0,1,1,5.039,3.92v.56A1.021,1.021,0,0,1,304.183,225.124Z" transform="translate(6429.847 7655.623)" fill="#707070" stroke="#707070" stroke-width="0.5"/><path d="M334.219,331.138a1.008,1.008,0,0,1-.713-1.731,1.083,1.083,0,0,1,1.425,0,1.018,1.018,0,0,1-.713,1.731Z" transform="translate(6399.812 7552.409)" fill="#707070" stroke="#707070" stroke-width="0.5"/><path d="M213.562,162.244a13.082,13.082,0,1,1,13.082-13.082A13.078,13.078,0,0,1,213.562,162.244Zm0-24.128a11.046,11.046,0,1,0,11.046,11.046A11.036,11.036,0,0,0,213.562,138.116Z" transform="translate(6520.469 7727.92)" fill="#707070" stroke="#707070" stroke-width="0.5"/></g></svg>