<svg xmlns="http://www.w3.org/2000/svg" width="24.493" height="24.403" viewBox="0 0 24.493 24.403"><path d="M106.967,24.881l-9.958-8.768a1.96,1.96,0,0,0-2.581,0l-9.957,8.767a1.394,1.394,0,0,0,.921,2.441h1.841v9.656a1.954,1.954,0,0,0,1.952,1.952h2.74a1.4,1.4,0,0,0,1.4-1.4V30.716a.28.28,0,0,1,.28-.28h4.234a.28.28,0,0,1,.28.28v6.818a1.4,1.4,0,0,0,1.4,1.4h2.74a1.954,1.954,0,0,0,1.952-1.952V27.322h1.841a1.394,1.394,0,0,0,.921-2.441Zm-.662,1.145a.267.267,0,0,1-.26.18h-2.4a.558.558,0,0,0-.558.558V36.978a.836.836,0,0,1-.835.836h-2.74a.28.28,0,0,1-.28-.28V30.716a1.4,1.4,0,0,0-1.4-1.4H93.6a1.4,1.4,0,0,0-1.4,1.4v6.818a.28.28,0,0,1-.28.28h-2.74a.836.836,0,0,1-.835-.836V26.764a.558.558,0,0,0-.558-.558h-2.4a.278.278,0,0,1-.184-.486l9.957-8.767a.841.841,0,0,1,1.106,0l9.957,8.767a.268.268,0,0,1,.076.307Z" transform="translate(-83.473 -15.027)" fill="#797a7e" stroke="#797a7e" stroke-width="1"/></svg>