<svg xmlns="http://www.w3.org/2000/svg" width="22.786" height="22.788" viewBox="0 0 22.786 22.788"><path d="M142.478,69.378l-2.5-2.5h0a2.19,2.19,0,0,0-2.543-.4l-1.473-1.473a8.891,8.891,0,1,0-.944.944l1.473,1.473a2.187,2.187,0,0,0,.4,2.543l2.5,2.5h0a2.183,2.183,0,0,0,3.087-3.087Zm-13.254-2.612a7.564,7.564,0,1,1,5.337-2.215,7.556,7.556,0,0,1-5.337,2.215Zm12.309,4.757a.847.847,0,0,1-1.2,0l-2.5-2.5a.85.85,0,0,1,1.2-1.195l2.5,2.5h0a.847.847,0,0,1,0,1.195Z" transform="translate(-120.329 -50.318)" fill="#fff" fill-rule="evenodd"/></svg>