<svg xmlns="http://www.w3.org/2000/svg" width="28.589" height="21.65" viewBox="0 0 28.589 21.65"><g transform="translate(-46.139 -359.748)"><path d="M203.609,180.631H181.5a1.4,1.4,0,0,1-1.4-1.4V164.01a1.4,1.4,0,0,1,1.4-1.4h22.1a1.4,1.4,0,0,1,1.4,1.4v15.221A1.4,1.4,0,0,1,203.609,180.631Zm-22.1-17.16a.54.54,0,0,0-.54.54v15.221a.54.54,0,0,0,.54.54h22.1a.54.54,0,0,0,.54-.54V164.01a.54.54,0,0,0-.54-.54Z" transform="translate(-130.836 200.268)" fill="#797a7e" stroke="#707070" stroke-width="1"/><path d="M142.53,140.715l-1.072-.194a1.433,1.433,0,0,1-1.461-1.4V123.9a1.433,1.433,0,0,1,1.461-1.4h23.063a1.432,1.432,0,0,1,1.461,1.4v1.662a.449.449,0,0,1-.9,0V123.9a.552.552,0,0,0-.563-.54H141.458a.552.552,0,0,0-.563.54v15.221a.552.552,0,0,0,.563.54h1.734c.249,0,.166.207.166.445l-.234.078-.594.531Z" transform="translate(-93.358 237.748)" fill="#797a7e" stroke="#707070" stroke-width="1"/><path d="M293.512,271.75a.438.438,0,0,1-.3-.116.429.429,0,0,1-.018-.608l10.144-10.769a.433.433,0,0,1,.627,0l6.493,6.9a.43.43,0,0,1-.626.59l-6.179-6.566-9.832,10.436a.427.427,0,0,1-.314.136Z" transform="translate(-236.406 109.147)" fill="#797a7e" stroke="#707070" stroke-width="1"/><path d="M180.574,299.389a.43.43,0,0,1-.281-.755l5.783-5.014a.431.431,0,0,1,.568,0l5.272,4.707a.43.43,0,0,1-.574.642l-4.99-4.454-5.5,4.766a.435.435,0,0,1-.281.1Z" transform="translate(-130.873 77.944)" fill="#797a7e" stroke="#707070" stroke-width="1"/><path d="M311.8,214.237a2.052,2.052,0,1,1,2.052-2.052A2.054,2.054,0,0,1,311.8,214.237Zm0-3.246A1.192,1.192,0,1,0,313,212.183,1.193,1.193,0,0,0,311.8,210.991Z" transform="translate(-251.983 155.861)" fill="#797a7e" stroke="#707070" stroke-width="1"/></g></svg>