<svg xmlns="http://www.w3.org/2000/svg" width="37.617" height="27.358" viewBox="0 0 37.617 27.358"><g transform="translate(-2250.967 -6357.71)"><path d="M144.376,130.688l-1.655-.253-.745-1.587a.457.457,0,0,0-.828,0l-.745,1.587-1.655.253a.458.458,0,0,0-.259.772L139.7,132.7l-.287,1.759a.458.458,0,0,0,.673.474l1.475-.816,1.475.816a.458.458,0,0,0,.674-.474l-.287-1.759,1.211-1.242a.458.458,0,0,0-.258-.772Zm-1.769,1.54a.457.457,0,0,0-.124.393l.172,1.057-.871-.482a.458.458,0,0,0-.443,0l-.872.482.172-1.057a.458.458,0,0,0-.124-.393l-.751-.77,1.017-.155a.459.459,0,0,0,.345-.258l.434-.925.434.925a.458.458,0,0,0,.345.258l1.017.155Zm10.008-1.54-1.655-.253-.745-1.587a.457.457,0,0,0-.828,0l-.745,1.587-1.655.253a.458.458,0,0,0-.259.772l1.211,1.242-.287,1.759a.458.458,0,0,0,.673.474l1.475-.816,1.475.816a.458.458,0,0,0,.674-.474l-.287-1.759,1.211-1.242a.458.458,0,0,0-.258-.772Zm-1.769,1.54a.457.457,0,0,0-.124.393l.172,1.057-.871-.482a.458.458,0,0,0-.443,0l-.872.482.172-1.057a.458.458,0,0,0-.124-.393l-.751-.77,1.017-.155a.459.459,0,0,0,.345-.258l.434-.925.434.925a.458.458,0,0,0,.345.258l1.017.155Zm-14.708-1.54-1.655-.253-.745-1.587a.458.458,0,0,0-.828,0l-.745,1.587-1.655.253a.458.458,0,0,0-.259.772l1.211,1.242-.287,1.759a.458.458,0,0,0,.673.474l1.475-.816,1.475.816a.458.458,0,0,0,.674-.474l-.287-1.759,1.211-1.242a.458.458,0,0,0-.258-.772Zm-1.77,1.54a.457.457,0,0,0-.124.393l.172,1.057-.871-.482a.458.458,0,0,0-.443,0l-.872.482.172-1.057a.458.458,0,0,0-.124-.393l-.751-.77,1.017-.155a.459.459,0,0,0,.345-.258l.434-.925.434.925a.458.458,0,0,0,.345.258l1.017.155ZM160.327,117.6H133.78a2.291,2.291,0,0,0-2.289,2.289v.458h-.458a2.291,2.291,0,0,0-2.289,2.289v.458h-.458A2.291,2.291,0,0,0,126,125.382V138.2a2.291,2.291,0,0,0,2.288,2.289h1.831v2.557a.915.915,0,0,0,1.562.647l3.2-3.2h19.95a2.291,2.291,0,0,0,2.289-2.288v-.458h.458a2.291,2.291,0,0,0,2.289-2.288v-.458h.458a2.291,2.291,0,0,0,2.289-2.289V119.889a2.291,2.291,0,0,0-2.289-2.289Zm-4.119,20.6a1.375,1.375,0,0,1-1.373,1.373H134.7a.457.457,0,0,0-.324.134l-3.338,3.338v-3.015a.458.458,0,0,0-.458-.458h-2.289a1.375,1.375,0,0,1-1.373-1.373V125.381a1.375,1.375,0,0,1,1.373-1.373h26.547a1.375,1.375,0,0,1,1.373,1.373Zm2.746-2.746a1.375,1.375,0,0,1-1.373,1.373h-.458V125.382a2.291,2.291,0,0,0-2.289-2.289H129.661v-.458a1.375,1.375,0,0,1,1.373-1.373h26.547a1.375,1.375,0,0,1,1.373,1.373ZM161.7,132.7a1.375,1.375,0,0,1-1.373,1.373h-.458V122.635a2.291,2.291,0,0,0-2.289-2.288H132.407v-.458a1.375,1.375,0,0,1,1.373-1.373h26.547a1.375,1.375,0,0,1,1.373,1.373Z" transform="translate(2125.469 6240.61)" fill="#707070" stroke="#707070" stroke-width="1"/></g></svg>