<svg xmlns="http://www.w3.org/2000/svg" width="31.602" height="31.602" viewBox="0 0 31.602 31.602"><g transform="translate(-2895.512 -5105.321)"><path d="M131.781,33.578h-2.438V32.035a.926.926,0,1,0-1.852,0v1.543h-2.315V32.035a.926.926,0,0,0-1.852,0v1.543H121.01V32.035a.926.926,0,1,0-1.852,0v1.543h-2.315V32.035a.926.926,0,0,0-1.852,0v1.543h-2.315V32.035a.926.926,0,1,0-1.852,0v1.543h-2.438a.926.926,0,0,0-.926.926V45.411a7.735,7.735,0,0,0-1.429,8.444l-4.114,4.115a2.777,2.777,0,1,0,3.927,3.928l4.115-4.115a7.7,7.7,0,0,0,3.148.669H131.78a.926.926,0,0,0,.926-.926V34.5a.926.926,0,0,0-.926-.926ZM110.826,35.43v.988a.926.926,0,1,0,1.852,0V35.43h2.315v.988a.926.926,0,0,0,1.852,0V35.43h2.315v.988a.926.926,0,0,0,1.852,0V35.43h2.314v.988a.926.926,0,0,0,1.852,0V35.43h2.314v.988a.926.926,0,0,0,1.852,0V35.43h1.512v3.765H109.314V35.43Zm2.284,9.382a5.895,5.895,0,1,1-5.895,5.895A5.9,5.9,0,0,1,113.11,44.811Zm-8.574,15.777a.926.926,0,0,1-1.309-1.309l3.792-3.792a7.833,7.833,0,0,0,1.309,1.309ZM118.129,56.6a7.743,7.743,0,0,0-8.815-12.644V41.047h21.541V56.6Z" transform="translate(2794.407 5074.212)" fill="#797a7e"/><path d="M446.3,217.22h-4.475a.926.926,0,0,0,0,1.852H446.3a.926.926,0,0,0,0-1.852Z" transform="translate(2476.184 4899.917)" fill="#797a7e"/><path d="M446.3,333.89h-4.475a.926.926,0,0,0,0,1.852H446.3a.926.926,0,0,0,0-1.852Z" transform="translate(2476.184 4790.653)" fill="#797a7e"/><path d="M446.754,275.56H442.31a.926.926,0,1,0,0,1.852h4.444a.926.926,0,1,0,0-1.852Z" transform="translate(2475.73 4845.28)" fill="#797a7e"/></g></svg>