<svg xmlns="http://www.w3.org/2000/svg" width="33.048" height="33.048" viewBox="0 0 33.048 33.048"><path d="M93.254,16.531A6.724,6.724,0,1,0,98,18.5,6.716,6.716,0,0,0,93.254,16.531Zm0,11.429h0a4.718,4.718,0,1,1,3.331-1.382,4.713,4.713,0,0,1-3.331,1.382Zm15.251-8.109-3.537-.832a12.392,12.392,0,0,0-.585-1.36l1.856-3a1,1,0,0,0-.143-1.235L102.873,10.2a1,1,0,0,0-1.235-.143l-3.091,1.914a12.381,12.381,0,0,0-1.375-.548L96.366,8a1,1,0,0,0-.975-.772H90.833A1,1,0,0,0,89.858,8l-.832,3.537a12.412,12.412,0,0,0-1.36.585l-3-1.856a1,1,0,0,0-1.235.143l-3.222,3.224a1,1,0,0,0-.143,1.235l1.914,3.09a12.479,12.479,0,0,0-.548,1.375L78,20.136a1,1,0,0,0-.772.975v4.558a1,1,0,0,0,.772.975l3.537.832a12.392,12.392,0,0,0,.585,1.36l-1.856,3a1,1,0,0,0,.143,1.235l3.223,3.223h0a1,1,0,0,0,1.235.143l3.091-1.914a12.367,12.367,0,0,0,1.375.548l.806,3.43a1,1,0,0,0,.975.772h4.558a1,1,0,0,0,.975-.772l.832-3.537a12.392,12.392,0,0,0,1.36-.585l3,1.856a1,1,0,0,0,1.235-.143l3.223-3.223h0a1,1,0,0,0,.143-1.235l-1.914-3.091a12.368,12.368,0,0,0,.548-1.375l3.43-.806a1,1,0,0,0,.772-.975V20.826a1,1,0,0,0-.772-.975Zm-1.231,4.739-3.218.757h0a1,1,0,0,0-.736.707,10.376,10.376,0,0,1-.825,2.071,1,1,0,0,0,.034,1l1.791,2.891-2.1,2.1L99.408,32.37a1,1,0,0,0-1.02-.02,10.375,10.375,0,0,1-2.047.883,1,1,0,0,0-.679.728l-.778,3.308H91.911l-.757-3.218a1,1,0,0,0-.707-.736,10.382,10.382,0,0,1-2.07-.825,1,1,0,0,0-1,.034l-2.891,1.791-2.1-2.1L84.132,29.4a1,1,0,0,0,.02-1.02,10.388,10.388,0,0,1-.883-2.047,1,1,0,0,0-.728-.679l-3.308-.778V21.9l3.218-.757h0a1,1,0,0,0,.735-.707,10.4,10.4,0,0,1,.825-2.071,1,1,0,0,0-.034-1l-1.791-2.89,2.1-2.1L87.1,14.125h0a1,1,0,0,0,1.02.02,10.4,10.4,0,0,1,2.047-.883,1,1,0,0,0,.679-.728l.778-3.308H94.6l.757,3.218a1,1,0,0,0,.706.736,10.411,10.411,0,0,1,2.071.825,1,1,0,0,0,1-.034l2.891-1.791,2.1,2.1-1.742,2.812a1,1,0,0,0-.02,1.02,10.4,10.4,0,0,1,.883,2.047,1,1,0,0,0,.728.679l3.308.778Z" transform="translate(-76.73 -6.723)" fill="#707070" stroke="#707070" stroke-width="1"/></svg>