<?xml version="1.0" encoding="UTF-8"?>
<svg width="150" height="150" version="1.1" viewBox="0 0 700 700" xmlns="http://www.w3.org/2000/svg" xmlns:xlink="http://www.w3.org/1999/xlink"> <g>
  <path style="fill: #5837e7;" d="m350 106.4c-35.828 0-71.715 13.613-99.051 40.949-23.199 23.199-36.562 52.531-40.074 82.773-57.051 5.1797-101.68 53.078-101.68 111.48 0 61.855 50.145 112 112 112h274.4c52.742 0 95.199-42.461 95.199-95.199 0-52.742-42.461-95.199-95.199-95.199h-6.6484c4.9336-41.184-8.4688-84.246-40.074-115.85-27.336-27.336-63.047-40.949-98.875-40.949zm0 117.6c2.9727-0.011718 5.0586 0.54688 7.5234 2.8008l61.602 56c4.3828 3.9336 5.1875 11.605 0.875 15.926-4.1602 4.168-11.578 4.668-15.926 0.69922l-42.875-39.031v120.4c0 6.1875-5.0117 11.199-11.199 11.199s-11.199-5.0156-11.199-11.199v-120.4l-42.875 39.023c-4.3477 3.9688-11.973 3.6641-15.926-0.69922-3.9531-4.3633-3.7266-11.918 0.875-15.926l61.602-56c1.6016-1.4648 4.5312-2.7422 7.5234-2.8008z"/>
  <use x="70" y="644" xlink:href="#u"/>
  <use x="90.550781" y="644" xlink:href="#d"/>
  <use x="104.359375" y="644" xlink:href="#b"/>
  <use x="123.347656" y="644" xlink:href="#l"/>
  <use x="142.242188" y="644" xlink:href="#a"/>
  <use x="155.628906" y="644" xlink:href="#b"/>
  <use x="174.617188" y="644" xlink:href="#g"/>
  <use x="204.410156" y="644" xlink:href="#k"/>
  <use x="224.453125" y="644" xlink:href="#j"/>
  <use x="252.453125" y="644" xlink:href="#i"/>
  <use x="274.148438" y="644" xlink:href="#f"/>
  <use x="283.746094" y="644" xlink:href="#e"/>
  <use x="312.921875" y="644" xlink:href="#e"/>
  <use x="342.097656" y="644" xlink:href="#f"/>
  <use x="361.445312" y="644" xlink:href="#t"/>
  <use x="381.609375" y="644" xlink:href="#a"/>
  <use x="394.992188" y="644" xlink:href="#h"/>
  <use x="414.929688" y="644" xlink:href="#g"/>
  <use x="434.96875" y="644" xlink:href="#f"/>
  <use x="444.570312" y="644" xlink:href="#c"/>
  <use x="70" y="672" xlink:href="#s"/>
  <use x="82.183594" y="672" xlink:href="#d"/>
  <use x="95.992188" y="672" xlink:href="#c"/>
  <use x="115.226562" y="672" xlink:href="#e"/>
  <use x="154.152344" y="672" xlink:href="#a"/>
  <use x="167.535156" y="672" xlink:href="#r"/>
  <use x="187.46875" y="672" xlink:href="#b"/>
  <use x="216.207031" y="672" xlink:href="#q"/>
  <use x="239.640625" y="672" xlink:href="#c"/>
  <use x="258.878906" y="672" xlink:href="#h"/>
  <use x="278.8125" y="672" xlink:href="#p"/>
  <use x="308.492188" y="672" xlink:href="#o"/>
  <use x="329.015625" y="672" xlink:href="#d"/>
  <use x="342.820312" y="672" xlink:href="#c"/>
  <use x="362.058594" y="672" xlink:href="#n"/>
  <use x="371.65625" y="672" xlink:href="#b"/>
  <use x="390.648438" y="672" xlink:href="#m"/>
  <use x="407.242188" y="672" xlink:href="#a"/>
 </g>
</svg>
