<svg  width="38.617" height="38.617" version="1.1" viewBox="0 0 700 700" xmlns="http://www.w3.org/2000/svg" xmlns:xlink="http://www.w3.org/1999/xlink">
 <g>
  <path d="m354.48 280c-69.441 0-126-56.559-126-126s56.559-126 126-126c69.441 0 126 56.559 126 126s-56.559 126-126 126zm0-217.28c-50.398 0-91.281 40.879-91.281 91.281 0 50.398 40.879 91.281 91.281 91.281 50.398 0 91.281-40.879 91.281-91.281 0-50.398-40.883-91.281-91.281-91.281z"  fill="#797a7e" stroke="#797a7e" stroke-width="1"/>
  <path d="m574.56 526.4h-439.6v-17.359c0-100.24 35.84-173.04 104.72-210.56 25.762-14 51.52-5.0391 75.039 3.3594 14 5.0391 27.441 9.5195 40.32 9.5195 12.879 0 25.762-4.4805 40.32-9.5195 22.961-8.3984 48.719-17.359 74.48-3.3594 68.32 36.961 104.72 110.32 104.72 210.56zm-404.88-34.719h369.6c-2.8008-57.68-21.281-127.12-86.801-162.96-11.199-6.1602-24.641-1.6797-45.922 5.6016-15.68 5.6016-33.039 11.762-51.52 11.762-18.48 0-36.398-6.1602-51.52-11.762-21.281-7.2812-35.281-11.762-46.48-5.6016-38.078 20.723-82.32 65.52-87.359 162.96z"  fill="#797a7e" stroke="#797a7e" stroke-width="1"/>
  <use x="70" y="644" xlink:href="#u"/>
  <use x="90.550781" y="644" xlink:href="#c"/>
  <use x="104.359375" y="644" xlink:href="#b"/>
  <use x="123.347656" y="644" xlink:href="#f"/>
  <use x="142.242188" y="644" xlink:href="#a"/>
  <use x="155.628906" y="644" xlink:href="#b"/>
  <use x="174.617188" y="644" xlink:href="#e"/>
  <use x="204.410156" y="644" xlink:href="#k"/>
  <use x="224.453125" y="644" xlink:href="#j"/>
  <use x="252.453125" y="644" xlink:href="#i"/>
  <use x="280.3125" y="644" xlink:href="#c"/>
  <use x="294.125" y="644" xlink:href="#h"/>
  <use x="306.304688" y="644" xlink:href="#f"/>
  <use x="334.945312" y="644" xlink:href="#t"/>
  <use x="355.113281" y="644" xlink:href="#a"/>
  <use x="368.5" y="644" xlink:href="#g"/>
  <use x="388.429688" y="644" xlink:href="#e"/>
  <use x="408.476562" y="644" xlink:href="#s"/>
  <use x="418.070312" y="644" xlink:href="#d"/>
  <use x="70" y="672" xlink:href="#h"/>
  <use x="82.183594" y="672" xlink:href="#c"/>
  <use x="95.992188" y="672" xlink:href="#d"/>
  <use x="115.226562" y="672" xlink:href="#r"/>
  <use x="154.152344" y="672" xlink:href="#a"/>
  <use x="167.535156" y="672" xlink:href="#q"/>
  <use x="187.46875" y="672" xlink:href="#b"/>
  <use x="216.207031" y="672" xlink:href="#p"/>
  <use x="239.640625" y="672" xlink:href="#d"/>
  <use x="258.878906" y="672" xlink:href="#g"/>
  <use x="278.8125" y="672" xlink:href="#o"/>
  <use x="308.492188" y="672" xlink:href="#n"/>
  <use x="329.015625" y="672" xlink:href="#c"/>
  <use x="342.820312" y="672" xlink:href="#d"/>
  <use x="362.058594" y="672" xlink:href="#m"/>
  <use x="371.65625" y="672" xlink:href="#b"/>
  <use x="390.648438" y="672" xlink:href="#l"/>
  <use x="407.242188" y="672" xlink:href="#a"/>
 </g>
</svg>
