<svg xmlns="http://www.w3.org/2000/svg" width="32.829" height="20.518" viewBox="0 0 32.829 20.518"><path d="M99.747,146.155H98.426C97.6,143.875,95.857,140,93.593,140H73.069A2.989,2.989,0,0,0,70,143.079v12.31a2.991,2.991,0,0,0,3.078,3.078h1.6a4.068,4.068,0,0,0,7.066,0h9.359a4.068,4.068,0,0,0,7.066,0h1.587a2.991,2.991,0,0,0,3.078-3.078v-6.155a2.991,2.991,0,0,0-3.078-3.078Zm-3.528,0H93.6a.938.938,0,0,1-1.026-1.026v-3.078h1.021C94.094,142.052,95.26,143.8,96.219,146.155ZM78.2,158.466a2.052,2.052,0,1,1,2.052-2.052A2.054,2.054,0,0,1,78.2,158.466Zm16.424,0a2.052,2.052,0,1,1,2.052-2.052A2.054,2.054,0,0,1,94.627,158.466Zm6.146-3.09a.942.942,0,0,1-1.026,1.038H98.73a4.1,4.1,0,0,0-8.207,0H82.305a4.1,4.1,0,0,0-8.207,0H73.086a.942.942,0,0,1-1.038-1.026v-12.31a.937.937,0,0,1,1.021-1.027H90.52v3.078a2.991,2.991,0,0,0,3.078,3.078h6.137a.943.943,0,0,1,1.038,1.026ZM86.41,147.181v2.052a1.026,1.026,0,0,1-1.026,1.026h-4.1a1.026,1.026,0,1,1,0-2.052h3.078v-1.026a1.026,1.026,0,0,1,2.052,0Z" transform="translate(-69.996 -140)" fill="#797a7e"/></svg>